<svg width="184" height="45" viewBox="0 0 184 45" fill="none" xmlns="http://www.w3.org/2000/svg">
<path d="M3.13444 38.9356C3.13444 38.9356 3.0252 11.7993 3.03935 11.6394C3.04945 11.5252 3.21975 11.2925 3.46295 11.0906C3.56042 11.0097 3.65915 10.9401 3.77361 10.8765C4.14083 10.6725 4.60379 10.6128 4.91819 10.7283C4.91819 10.7283 5.08833 10.7962 5.27805 10.9083C5.40785 10.9849 5.56101 11.0687 5.68526 11.1355C6.24445 11.4362 7.007 11.8604 7.50002 12.1361C7.80557 12.307 7.99424 12.63 7.99424 12.9801V32.4909C7.99424 33.5705 9.09893 34.2313 10.0421 33.7058C14.8225 31.0421 26.2609 24.6244 26.2609 24.6244C26.5268 24.4831 26.7493 24.2865 26.8905 24.0333C27.1039 23.6506 27.0434 23.2335 27.0073 23.0112L31.0155 25.2543C31.8739 25.7741 31.8739 27.176 30.9661 27.6725L6.73688 41.153C5.07883 41.9673 3.13444 40.7709 3.13444 38.9356Z" fill="url(#paint0_linear_2788_257)"/>
<path d="M3.03809 6.09447C3.09234 4.43744 4.92467 3.16168 6.59689 4.00058L36.1911 20.585C37.2091 21.1823 37.4802 22.1504 37.4165 23.0055C37.36 23.7638 36.906 24.4062 36.4914 24.7216C35.601 25.3992 33.2918 26.3909 33.2918 26.3909C33.709 25.7144 33.5371 24.7288 32.7131 24.3109L15.9363 14.9116C15.3217 14.5673 14.5639 15.0086 14.5638 15.713C14.5635 20.1905 14.5744 27.4042 14.5744 27.7738C14.5744 28.1823 14.7332 28.3918 14.8423 28.5358L14.849 28.5446C14.9582 28.6889 15.1417 28.8107 15.2202 28.859C14.5244 29.2664 12.8703 30.1827 11.5178 30.9333C10.703 31.3855 9.69007 30.7925 9.69007 29.8607V11.9979C9.69007 11.646 9.4994 11.3217 9.19189 11.1506L5.07791 8.86117C4.33168 8.48616 3.38614 8.99724 3.03809 9.6758V6.09447Z" fill="url(#paint1_linear_2788_257)"/>
<path d="M107.666 31.4152C106.049 31.4152 104.574 31.0322 103.241 30.2663C101.936 29.472 100.886 28.4081 100.092 27.0748C99.3259 25.7131 98.9429 24.1812 98.9429 22.4791C98.9429 20.6919 99.3259 19.1316 100.092 17.7983C100.886 16.4366 101.95 15.3869 103.283 14.6493C104.645 13.9118 106.163 13.543 107.836 13.543C109 13.543 110.078 13.699 111.07 14.0111C112.063 14.2947 113 14.7628 113.879 15.4153C114.219 15.699 114.39 16.082 114.39 16.5642C114.39 16.933 114.262 17.2593 114.007 17.5429C113.78 17.7983 113.468 17.9259 113.07 17.9259C112.815 17.9259 112.531 17.8266 112.219 17.6281C111.539 17.1174 110.829 16.7486 110.092 16.5217C109.354 16.2947 108.617 16.1813 107.879 16.1813C106.149 16.1813 104.716 16.7628 103.581 17.9259C102.475 19.0607 101.922 20.5784 101.922 22.4791C101.922 24.3231 102.446 25.8408 103.496 27.0323C104.574 28.1954 105.964 28.7769 107.666 28.7769C108.688 28.7769 109.581 28.5925 110.347 28.2237C111.141 27.855 111.766 27.3869 112.219 26.8195C112.702 26.2238 112.971 25.6422 113.028 25.0748C113.028 24.6209 112.801 24.394 112.347 24.394H109.326C108.39 24.394 107.922 23.9543 107.922 23.0748C107.922 22.6777 108.049 22.3656 108.305 22.1387C108.56 21.9117 108.9 21.7982 109.326 21.7982H114.177C114.801 21.7982 115.255 21.9401 115.539 22.2238C115.822 22.4791 115.964 22.9897 115.964 23.7557C115.964 25.1457 115.609 26.4223 114.9 27.5855C114.219 28.7486 113.255 29.6847 112.007 30.394C110.758 31.0748 109.312 31.4152 107.666 31.4152Z" fill="white"/>
<path d="M83.2064 31.4134C82.8376 31.4134 82.4972 31.2999 82.1851 31.073C81.8731 30.846 81.717 30.5056 81.717 30.0517V15.7113C81.717 15.0589 81.9156 14.5766 82.3128 14.2645C82.7383 13.9241 83.1922 13.7539 83.6745 13.7539C84.4121 13.7539 84.9511 14.0376 85.2915 14.605L92.3127 25.6262C92.4546 25.8531 92.6106 25.9666 92.7808 25.9666C93.0361 25.9666 93.1638 25.768 93.1638 25.3709L92.9936 15.1156C92.9936 14.6617 93.1496 14.3213 93.4617 14.0943C93.7737 13.8674 94.1141 13.7539 94.4829 13.7539C94.8517 13.7539 95.1922 13.8674 95.5042 14.0943C95.8163 14.3213 95.9723 14.6617 95.9723 15.1156V29.5411C95.9723 30.1652 95.7879 30.6333 95.4191 30.9453C95.0503 31.2574 94.6248 31.4134 94.1425 31.4134C93.8021 31.4134 93.4617 31.3283 93.1212 31.1581C92.8092 31.0162 92.5397 30.7751 92.3127 30.4347L85.4192 19.7113C85.2773 19.4844 85.1213 19.3709 84.9511 19.3709C84.6957 19.3709 84.5681 19.5695 84.5681 19.9666L84.6958 30.0517C84.6958 30.5056 84.5397 30.846 84.2277 31.073C83.944 31.2999 83.6036 31.4134 83.2064 31.4134Z" fill="white"/>
<path d="M76.1883 31.4134C75.8195 31.4134 75.4791 31.2857 75.1671 31.0304C74.855 30.8035 74.699 30.4631 74.699 30.0092V15.1582C74.699 14.6759 74.855 14.3213 75.1671 14.0943C75.4791 13.8674 75.8195 13.7539 76.1883 13.7539C76.5855 13.7539 76.9259 13.8674 77.2096 14.0943C77.5217 14.3213 77.6777 14.6759 77.6777 15.1582V30.0092C77.6777 30.4631 77.5217 30.8035 77.2096 31.0304C76.9259 31.2857 76.5855 31.4134 76.1883 31.4134Z" fill="white"/>
<path d="M59.3696 30.989C59.6817 31.2727 60.015 31.4519 60.3838 31.4519C60.7809 31.4519 61.174 31.3862 61.4577 31.1025C61.7413 30.8472 61.9973 30.4216 61.9973 30.0528V25.793C61.9973 24.9419 62.3395 24.5165 62.9363 24.4901H64.3187C64.9996 24.4901 65.6043 24.5493 66.1717 24.8613C66.7391 25.1734 67.2072 25.7408 67.5759 26.5635L69.3206 30.6485C69.5476 31.1875 69.9447 31.4571 70.5121 31.4571C70.8525 31.4571 71.1788 31.3436 71.4908 31.1166C71.8312 30.8897 72.0015 30.5209 72.0015 30.0102C72.0015 29.8117 71.9589 29.6273 71.8738 29.4571L70.3419 26.0103C70.0582 25.3862 69.732 24.8897 69.3632 24.5209C69.0228 24.1237 68.9522 24.0096 68.5647 23.8267C69.3632 23.4628 70.008 22.7994 70.5754 21.92C71.1711 21.0122 71.3632 20.0245 71.3632 19.0316C71.3632 17.9819 71.1078 17.0883 70.5972 16.3507C70.0866 15.5848 69.4057 15.0032 68.5547 14.6061C67.732 14.1805 66.8384 13.9678 65.8738 13.9678H61.4122C60.8164 13.9678 59.879 13.8958 59.4259 14.2919C58.9582 14.7009 58.9333 15.0957 58.9336 15.3886C58.9336 15.3886 59.0091 15.9316 59.2229 16.1743C59.4225 16.401 59.5657 16.4821 59.8608 16.5467C60.1457 16.609 60.6672 16.609 60.6672 16.609H62.8848H65.6198C66.329 16.609 66.9802 16.7763 67.5759 17.2018C68.2001 17.6273 68.5121 18.2656 68.5121 19.1167C68.5121 19.9961 68.267 20.7247 67.5861 21.2069C66.9337 21.6608 66.2856 21.92 65.5763 21.92H62.7498C62.7498 21.92 60.4718 21.8401 59.5801 21.92C58.8876 22.0495 58.9441 22.5844 58.9441 22.8287L58.9441 24.3933V30.0528C58.9441 30.4216 59.086 30.7336 59.3696 30.989Z" fill="white"/>
<path d="M50.0054 31.416C49.5515 31.416 49.1827 31.2883 48.899 31.033C48.6437 30.7777 48.516 30.4514 48.516 30.0543V17.6713C48.516 16.9621 48.1472 16.6075 47.4096 16.6075H44.7288C43.8494 16.6075 43.4097 16.1678 43.4097 15.2884C43.4097 14.409 43.8494 13.9692 44.7288 13.9692H55.2394C55.6366 13.9692 55.9628 14.0969 56.2181 14.3522C56.4734 14.5792 56.6011 14.8912 56.6011 15.2884C56.6011 15.6855 56.4734 16.0118 56.2181 16.2671C55.9628 16.494 55.6366 16.6075 55.2394 16.6075H52.6011C51.8635 16.6075 51.4947 16.9621 51.4947 17.6713V30.0543C51.4947 30.4514 51.3529 30.7777 51.0692 31.033C50.8139 31.2883 50.4593 31.416 50.0054 31.416Z" fill="white"/>
<path d="M176.274 31.4988C175.82 31.4988 175.451 31.3711 175.168 31.1158C174.912 30.8605 174.785 30.5343 174.785 30.1371V25.4563C174.785 24.7754 174.6 24.1513 174.232 23.5839L169.295 16.1372C169.125 15.8818 169.04 15.6265 169.04 15.3712C169.04 14.9457 169.21 14.5911 169.551 14.3074C169.891 13.9953 170.26 13.8393 170.657 13.8393C170.884 13.8393 171.097 13.8818 171.295 13.967C171.494 14.0521 171.664 14.2223 171.806 14.4776L175.849 20.9456C175.962 21.1442 176.104 21.2435 176.274 21.2435C176.444 21.2435 176.586 21.1442 176.7 20.9456L180.742 14.4776C180.884 14.2223 181.054 14.0521 181.253 13.967C181.48 13.8818 181.693 13.8393 181.891 13.8393C182.288 13.8393 182.657 13.9953 182.998 14.3074C183.338 14.5911 183.508 14.9457 183.508 15.3712C183.508 15.6265 183.423 15.8818 183.253 16.1372L178.317 23.5839C177.948 24.1513 177.764 24.7754 177.764 25.4563V30.1371C177.764 30.5343 177.622 30.8605 177.338 31.1158C177.083 31.3711 176.728 31.4988 176.274 31.4988Z" fill="white"/>
<path fill-rule="evenodd" clip-rule="evenodd" d="M154.335 31.073C153.966 31.073 153.64 30.9474 153.356 30.6964C153.072 30.4453 152.931 30.1105 152.931 29.6921C152.931 29.5526 152.959 29.3713 153.016 29.1481L158.335 14.9631C158.533 14.4889 158.831 14.1263 159.228 13.8752C159.626 13.6241 160.051 13.4986 160.505 13.4986C160.959 13.4986 161.384 13.6241 161.782 13.8752C162.207 14.1263 162.519 14.4889 162.718 14.9631L168.377 29.1481C168.434 29.3713 168.462 29.5526 168.462 29.6921C168.462 29.7039 168.462 29.7155 168.462 29.7272C168.462 29.74 168.463 29.7529 168.463 29.7659C168.463 30.1142 168.329 30.4277 168.062 30.7063C167.821 30.9268 167.525 31.0476 167.175 31.0687C167.136 31.0715 167.098 31.073 167.058 31.073C167.041 31.073 167.024 31.0726 167.006 31.072H159.308C158.408 31.072 157.958 30.6366 157.958 29.7659C157.958 28.8952 158.408 28.4598 159.308 28.4598H164.961L164.25 26.5957L162.973 23.1645L160.931 17.4319C160.845 17.1529 160.718 17.0135 160.548 17.0135C160.349 17.0135 160.207 17.1529 160.122 17.4319L158.207 23.2063L157.016 26.5957L155.739 30.2779C155.597 30.5569 155.384 30.7522 155.101 30.8637C154.845 31.0032 154.59 31.073 154.335 31.073Z" fill="white"/>
<path d="M143.102 31.0733C142.393 31.0733 141.825 30.8605 141.4 30.435C140.974 30.0094 140.761 29.4421 140.761 28.7328V15.2435C140.761 14.7613 140.917 14.4067 141.229 14.1797C141.57 13.9528 141.924 13.8393 142.293 13.8393C142.662 13.8393 142.988 13.9528 143.272 14.1797C143.584 14.4067 143.74 14.7613 143.74 15.2435V27.3286C143.74 27.7541 143.825 28.052 143.995 28.2222C144.166 28.3641 144.449 28.435 144.846 28.435H149.229C149.683 28.435 150.01 28.5768 150.208 28.8605C150.435 29.1442 150.549 29.4421 150.549 29.7541C150.549 30.0945 150.435 30.4066 150.208 30.6903C150.01 30.9456 149.683 31.0733 149.229 31.0733H143.102Z" fill="white"/>
<path d="M125.894 31.0758C126.207 31.3595 126.547 31.5014 126.916 31.5014C127.313 31.5014 127.653 31.3595 127.937 31.0758C128.249 30.8205 128.405 30.5085 128.405 30.1397V25.7993C128.405 24.9482 128.76 24.5227 129.469 24.5227H132.32C133.824 24.5227 135.1 24.0262 136.15 23.0333C137.228 22.0404 137.767 20.7071 137.767 19.0333C137.767 17.9553 137.511 17.0475 137.001 16.3099C136.49 15.5724 135.809 15.0192 134.958 14.6504C134.136 14.2532 133.242 14.0546 132.277 14.0546H127.767H127.744C127.151 14.0546 126.391 14.0546 126.167 14.1487C125.675 14.3551 125.351 14.8464 125.351 15.3622C125.351 15.9467 125.724 16.5148 126.294 16.5904C127.11 16.6985 129.384 16.6504 129.384 16.6504H132.022C132.731 16.6504 133.384 16.8631 133.98 17.2887C134.604 17.6858 134.916 18.2957 134.916 19.1184C134.916 20.1681 134.575 20.9057 133.894 21.3312C133.242 21.7567 132.561 21.9695 131.852 21.9695H129.256C129.256 21.9695 127.754 21.908 126.635 21.9419C125.981 21.9617 125.752 21.9153 125.488 22.2759C125.401 22.3952 125.411 22.4816 125.401 22.7788C125.333 24.7994 125.426 30.1397 125.426 30.1397C125.426 30.5085 125.582 30.8205 125.894 31.0758Z" fill="white"/>
<defs>
<linearGradient id="paint0_linear_2788_257" x1="5.78958" y1="17.0617" x2="31.5098" y2="30.5105" gradientUnits="userSpaceOnUse">
<stop stop-color="#F90D3D"/>
<stop offset="0.606715" stop-color="#F90E65" stop-opacity="0.8"/>
<stop offset="1" stop-color="#F90E78" stop-opacity="0.05"/>
</linearGradient>
<linearGradient id="paint1_linear_2788_257" x1="24.6097" y1="-2.87059" x2="12.6891" y2="33.7144" gradientUnits="userSpaceOnUse">
<stop stop-color="#FF0008"/>
<stop offset="0.38281" stop-color="#DC0711"/>
<stop offset="1" stop-color="#FF215F" stop-opacity="0.48"/>
</linearGradient>
</defs>
</svg>
